<svg xmlns="http://www.w3.org/2000/svg" viewBox="0 0 100 100" width="100" height="100"><title>Yannick Ihmels’ logo</title><path fill="#c00" d="M0 0h100v100H0z"/><path fill="#fff" d="M39.394 56.927q0 9.34 3.174 13.672 3.174 4.272 8.667 4.272 8.18 0 13-7.996 4.822-7.995 4.822-18.25-.183-7.69-2.197-15.502-2.014-7.874-5.37-16.175H74.06q3.113 6.47 5.066 14.343 1.953 7.873 1.953 17.334 0 15.136-7.506 25.39-7.508 10.254-21.73 10.254-11.718 0-18.126-6.713-6.348-6.775-6.348-20.752V32.88q0-3.54-1.22-4.822-1.22-1.343-3.358-1.343-1.22 0-2.807.488-1.526.428-2.32.794L14.92 19.39q2.562-1.708 5.736-2.685 3.235-.976 6.41-.976 5.98 0 9.154 3.417 3.174 3.418 3.174 10.925v26.855z"/></svg>