<?xml version="1.0" encoding="utf-8"?>
<!DOCTYPE svg PUBLIC "-//W3C//DTD SVG 1.1//EN" "http://www.w3.org/Graphics/SVG/1.1/DTD/svg11.dtd">
<svg xmlns="http://www.w3.org/2000/svg" version="1.1" viewBox="0 0 100 100" width="100" height="100">
	<title>Yannick Ihmels’ logo</title>
	<path fill="#c00" d="M0 0h100v100H0z" />
	<path fill="#fff" d="M76.667 79.873q-4.248 2.783-10.62 4.688-6.372 1.905-14.575 1.905-7.178 0-12.378-1.538t-8.643-4.322q-3.368-2.856-5.053-6.738-1.61-3.882-1.61-8.57 0-3.808 1.317-6.737 1.392-2.93 3.663-5.054 2.27-2.124 5.2-3.516 3.003-1.39 6.225-2.05v-.513q-2.856-.952-5.346-2.27-2.417-1.392-4.248-3.223-1.758-1.905-2.857-4.322-1.024-2.49-1.024-5.713 0-4.76 2.417-8.13 2.49-3.37 6.445-5.42 4.028-2.124 9.082-3.077 5.054-.952 10.254-.952 4.76 0 10.034.734 5.274.66 9.668 1.904l-.073 14.355h-3.516l-4.174-8.276q-.88-.513-2.344-1.025-1.393-.586-3.077-1.026-1.612-.44-3.443-.66-1.83-.292-3.59-.292-2.562 0-5.272.586-2.71.513-4.98 1.904-2.198 1.392-3.663 3.81-1.39 2.416-1.39 6.078 0 3.076.804 5.347.878 2.196 2.197 3.734 1.318 1.538 2.856 2.49 1.61.953 3.15 1.392 1.538-.147 4.028-.293 2.49-.146 4.98-.22 2.565-.146 4.616-.22 2.124-.073 2.856-.073h2.344v7.032h-2.344q-.732 0-2.856-.074-2.124-.073-4.834-.22-2.637-.146-5.42-.292-2.71-.22-4.688-.367-1.758.512-3.59 1.538-1.83.952-3.368 2.636-1.465 1.685-2.417 4.102-.953 2.417-.953 5.713 0 2.562.952 5.126.95 2.563 3.15 4.614 2.196 1.977 5.71 3.223 3.59 1.245 8.79 1.245 3.663 0 6.74-.293 3.075-.367 5.712-.88 2.636-.512 4.907-1.17 2.27-.734 4.247-1.393v4.76z" />
</svg>
